<?xml version="1.0" standalone="no"?>
<!DOCTYPE svg PUBLIC "-//W3C//DTD SVG 20010904//EN"
 "http://www.w3.org/TR/2001/REC-SVG-20010904/DTD/svg10.dtd">
<svg version="1.0" xmlns="http://www.w3.org/2000/svg"
 width="500.000000pt" height="500.000000pt" viewBox="0 0 500.000000 500.000000"
 preserveAspectRatio="xMidYMid meet">
<metadata>
Created by potrace 1.11, written by Peter Selinger 2001-2013
</metadata>
<g transform="translate(0.000000,500.000000) scale(0.100000,-0.100000)"
fill="#000000" stroke="none">
<path d="M2438 3975 c-2 -1 -39 -5 -83 -9 -463 -37 -912 -331 -1144 -751 -78
-141 -149 -342 -166 -470 -3 -22 -9 -65 -13 -95 -8 -59 -7 -258 2 -325 36
-254 114 -461 247 -655 60 -88 72 -103 149 -186 151 -164 381 -311 599 -384
245 -81 546 -98 781 -45 36 9 75 18 88 20 53 12 200 71 280 112 290 150 521
391 661 688 32 69 85 216 95 265 3 14 10 50 15 80 6 30 13 66 16 80 10 48 13
276 4 350 -21 187 -69 351 -148 508 -93 185 -197 318 -371 472 -56 50 -199
144 -279 184 -77 39 -221 97 -221 90 0 -3 -9 0 -20 6 -25 13 -198 50 -265 56
-59 6 -224 12 -227 9z m252 -221 c408 -59 768 -323 950 -699 60 -124 68 -144
102 -280 26 -107 33 -364 13 -487 -60 -358 -283 -686 -595 -875 -153 -92 -359
-163 -520 -179 -51 -5 -257 -5 -272 1 -7 2 -37 6 -67 9 -55 6 -60 7 -201 51
-80 26 -251 106 -295 139 -178 134 -273 230 -360 360 -96 146 -155 290 -191
461 -19 95 -26 359 -10 440 38 200 100 355 205 515 104 159 280 316 460 413
116 62 320 126 441 139 87 10 244 6 340 -8z"/>
<path d="M2459 3426 c-2 -2 -34 -6 -71 -10 -37 -3 -78 -10 -92 -16 -14 -5 -26
-7 -26 -5 0 3 -33 -7 -72 -21 -568 -203 -796 -864 -475 -1379 74 -119 221
-252 352 -318 459 -231 999 -63 1243 386 191 351 123 808 -162 1090 -170 169
-367 254 -627 272 -37 2 -68 3 -70 1z"/>
</g>
</svg>
